<?xml version="1.0" standalone="no"?>
<!DOCTYPE svg PUBLIC "-//W3C//DTD SVG 20010904//EN"
 "http://www.w3.org/TR/2001/REC-SVG-20010904/DTD/svg10.dtd">
<svg version="1.0" xmlns="http://www.w3.org/2000/svg"
 width="2362.000000pt" height="2362.000000pt" viewBox="0 0 2362.000000 2362.000000"
 preserveAspectRatio="xMidYMid meet">
<metadata>
Created by potrace 1.14, written by Peter Selinger 2001-2017
</metadata>
<g transform="translate(0.000000,2362.000000) scale(0.100000,-0.100000)"
fill="#000000" stroke="none">
<path d="M11753 23108 c-45 -49 -6425 -8552 -6433 -8573 -7 -18 51 -151 318
-726 5964 -12856 6159 -13274 6186 -13284 18 -6 33 -6 44 1 19 12 6402 14008
6402 14037 0 16 -6365 8471 -6428 8540 -31 33 -62 35 -89 5z m3073 -4143
c1654 -2194 3079 -4085 3166 -4201 194 -259 193 -244 19 -302 -64 -22 -795
-268 -1626 -547 -830 -279 -1515 -511 -1521 -516 -6 -5 -19 -31 -29 -57 -34
-91 -115 -263 -171 -365 -435 -789 -1179 -1368 -2039 -1587 -238 -61 -509
-100 -687 -100 l-80 0 6 -632 c3 -348 8 -2275 11 -4283 3 -2007 6 -4084 7
-4615 1 -918 0 -967 -17 -1002 -10 -21 -22 -38 -25 -38 -3 0 -14 17 -24 38
-18 35 -19 279 -31 5840 -6 3191 -14 5804 -16 5806 -10 10 -3290 1082 -4714
1540 -863 279 -1577 510 -1585 515 -8 4 -19 20 -24 34 -8 21 -4 32 21 63 29
37 43 42 1594 575 860 296 2270 785 3133 1086 l1568 548 -5 3079 -6 3079 22
29 c17 22 23 26 33 16 7 -7 1365 -1808 3020 -4003z"/>
<path d="M10270 16184 c-806 -283 -2198 -766 -3095 -1075 -1912 -657 -1695
-582 -1695 -589 0 -3 716 -237 1591 -519 876 -282 2289 -742 3142 -1022 853
-280 1552 -509 1554 -509 6 0 3 3805 -4 4018 -4 143 -10 212 -17 211 -6 0
-670 -232 -1476 -515z"/>
<path d="M14860 15673 c0 -5 16 -56 35 -114 61 -180 109 -385 142 -614 25
-172 25 -650 0 -820 -32 -216 -81 -437 -131 -582 l-24 -72 1161 391 c639 214
1365 458 1612 540 248 83 453 153 457 157 3 3 -723 256 -1614 561 -891 305
-1624 557 -1629 558 -5 2 -9 0 -9 -5z"/>
</g>
</svg>
